<?xml version="1.0" encoding="UTF-8" standalone="no"?>
<svg width="24px" height="35px" viewBox="0 0 24 35" version="1.1" xmlns="http://www.w3.org/2000/svg" xmlns:xlink="http://www.w3.org/1999/xlink">
    <!-- Generator: Sketch 50.2 (55047) - http://www.bohemiancoding.com/sketch -->
    <title>Combined Shape</title>
    <desc>Created with Sketch.</desc>
    <defs></defs>
    <g id="Page-1" stroke="none" stroke-width="1" fill="none" fill-rule="evenodd">
        <g id="waiting.state" transform="translate(-20.000000, -612.000000)" fill="#FFFFFF" fill-rule="nonzero">
            <g id="Group-2" transform="translate(20.000000, 610.000000)">
                <path d="M5.2173913,8.7826087 C5.2173913,5.03667735 8.25406865,2 12,2 C15.7459313,2 18.7826087,5.03667735 18.7826087,8.7826087 L18.7826087,18.173913 C18.7826087,21.9198444 15.7459313,24.9565217 12,24.9565217 C8.25406865,24.9565217 5.2173913,21.9198444 5.2173913,18.173913 L5.2173913,8.7826087 Z M24,17.6521739 C23.9990814,23.6738719 19.5354714,28.7623873 13.5652174,29.5478261 L13.5652174,33.5652174 L17.2173913,33.5652174 L17.2173913,36.6956522 L6.7826087,36.6956522 L6.7826087,33.5652174 L10.4347826,33.5652174 L10.4347826,29.5478261 C4.46452857,28.7623873 0.000918580503,23.6738719 0,17.6521739 L0,16.5669565 L3.13043478,16.5669565 L3.13043478,17.6521739 C3.13043486,22.5506995 7.10147444,26.521739 12,26.521739 C16.8985256,26.521739 20.8695651,22.5506995 20.8695652,17.6521739 L20.8695652,16.5669565 L24,16.5669565 L24,17.6521739 Z" id="Combined-Shape"></path>
            </g>
        </g>
    </g>
</svg>