<?xml version="1.0" encoding="UTF-8" standalone="no"?>
<svg width="34px" height="16px" viewBox="0 0 34 16" version="1.1" xmlns="http://www.w3.org/2000/svg" xmlns:xlink="http://www.w3.org/1999/xlink">
    <!-- Generator: Sketch 50.2 (55047) - http://www.bohemiancoding.com/sketch -->
    <title>Shape</title>
    <desc>Created with Sketch.</desc>
    <defs></defs>
    <g id="Page-1" stroke="none" stroke-width="1" fill="none" fill-rule="evenodd">
        <g id="asking.state" transform="translate(-19.000000, -621.000000)" fill="#FFFFFF" fill-rule="nonzero" stroke="#FFFFFF" stroke-width="2">
            <path d="M45.0666667,622 C41.2437333,622 38.1333333,625.140308 38.1333333,629 C38.1333333,631.495231 39.4368,633.683538 41.3888,634.923077 L30.6112,634.923077 C32.5632,633.683538 33.8666667,631.495231 33.8666667,629 C33.8666667,625.140308 30.7562667,622 26.9333333,622 C23.1104,622 20,625.140308 20,629 C20,632.859692 23.1104,636 26.9333333,636 L45.0666667,636 C48.8896,636 52,632.859692 52,629 C52,625.140308 48.8896,622 45.0666667,622 Z M21,629 C21,625.691818 23.6918182,623 27,623 C30.3081818,623 33,625.691818 33,629 C33,632.308182 30.3081818,635 27,635 C23.6918182,635 21,632.308182 21,629 Z M45,635 C41.6918182,635 39,632.308182 39,629 C39,625.691818 41.6918182,623 45,623 C48.3081818,623 51,625.691818 51,629 C51,632.308182 48.3081818,635 45,635 Z" id="Shape"></path>
        </g>
    </g>
</svg>