<?xml version="1.0" encoding="UTF-8" standalone="no"?>
<svg width="29px" height="32px" viewBox="0 0 29 32" version="1.1" xmlns="http://www.w3.org/2000/svg" xmlns:xlink="http://www.w3.org/1999/xlink">
    <!-- Generator: Sketch 50.2 (55047) - http://www.bohemiancoding.com/sketch -->
    <title>Combined Shape</title>
    <desc>Created with Sketch.</desc>
    <defs></defs>
    <g id="Page-1" stroke="none" stroke-width="1" fill="none" fill-rule="evenodd">
        <g id="response.state" transform="translate(-20.000000, -613.000000)" fill="#FFFFFF" fill-rule="nonzero">
            <path d="M43.563,628.174 L21.563,613.174 C21.256,612.966 20.859,612.943 20.532,613.116 C20.205,613.289 20,613.629 20,614 L20,644 C20,644.371 20.205,644.711 20.533,644.884 C20.679,644.962 20.84,645 21,645 C21.197,645 21.394,644.941 21.563,644.826 L43.563,629.826 C43.836,629.64 44,629.331 44,629 C44,628.669 43.836,628.36 43.563,628.174 Z M22,642.107 L22,615.893 L41.225,629 L22,642.107 Z M46,645 L46,613 L49,613 L49,645 L46,645 Z" id="Combined-Shape"></path>
        </g>
    </g>
</svg>